<?xml version="1.0" standalone="no"?><!DOCTYPE svg PUBLIC "-//W3C//DTD SVG 1.1//EN" "http://www.w3.org/Graphics/SVG/1.1/DTD/svg11.dtd"><svg t="1644671472850" class="icon" viewBox="0 0 1024 1024" version="1.1" xmlns="http://www.w3.org/2000/svg" p-id="2095" xmlns:xlink="http://www.w3.org/1999/xlink" width="200" height="200"><defs><style type="text/css"></style></defs><path d="M512 1024c282.771692 0 512-229.228308 512-512S794.771692 0 512 0 0 229.228308 0 512s229.228308 512 512 512z m0-59.076923C261.858462 964.923077 59.076923 762.141538 59.076923 512S261.858462 59.076923 512 59.076923s452.923077 202.781538 452.923077 452.923077-202.781538 452.923077-452.923077 452.923077z" p-id="2096" fill="#ffffff"></path><path d="M464.945231 748.642462c15.399385 3.042462 31.133538 4.588308 47.054769 4.588307 133.228308 0 241.230769-108.002462 241.230769-241.230769S645.228308 270.769231 512 270.769231 270.769231 378.771692 270.769231 512c0 15.921231 1.545846 31.655385 4.588307 47.054769a24.615385 24.615385 0 0 0 48.295385-9.550769A193.053538 193.053538 0 0 1 320 512c0-106.043077 85.956923-192 192-192S704 405.956923 704 512 618.043077 704 512 704c-12.701538 0-25.245538-1.230769-37.494154-3.652923a24.615385 24.615385 0 1 0-9.550769 48.295385z" p-id="2097" fill="#ffffff"></path><path d="M512 512m-78.769231 0a78.769231 78.769231 0 1 0 157.538462 0 78.769231 78.769231 0 1 0-157.538462 0Z" p-id="2098" fill="#ffffff"></path><path d="M510.385231 498.294154C396.465231 543.123692 320 653.351385 320 777.846154a24.615385 24.615385 0 1 0 49.230769 0 251.145846 251.145846 0 0 1 159.182769-233.737846 24.615385 24.615385 0 0 0-18.018461-45.814154z" p-id="2099" fill="#ffffff"></path></svg>